<svg xmlns="http://www.w3.org/2000/svg" xmlns:xlink="http://www.w3.org/1999/xlink" width="500" zoomAndPan="magnify" viewBox="0 0 375 374.999991" height="500" preserveAspectRatio="xMidYMid meet" version="1.0"><defs><g/><clipPath id="ff3870a493"><path d="M 16 0.238281 L 186 0.238281 L 186 294 L 16 294 Z M 16 0.238281 " clip-rule="nonzero"/></clipPath><clipPath id="6e10786d40"><rect x="0" width="170" y="0" height="294"/></clipPath><clipPath id="46d9550634"><path d="M 79 28 L 230 28 L 230 321.601562 L 79 321.601562 Z M 79 28 " clip-rule="nonzero"/></clipPath><clipPath id="e6b80e6970"><path d="M 0.0390625 76 L 147 76 L 147 231 L 0.0390625 231 Z M 0.0390625 76 " clip-rule="nonzero"/></clipPath><clipPath id="edd9d239bb"><rect x="0" width="151" y="0" height="294"/></clipPath><clipPath id="026f4ee1a7"><path d="M 0.867188 173.710938 L 78.074219 173.710938 L 78.074219 182.117188 L 0.867188 182.117188 Z M 0.867188 173.710938 " clip-rule="nonzero"/></clipPath><clipPath id="6c611b5979"><path d="M 0.867188 177.914062 L 78.058594 173.710938 L 78.058594 182.117188 Z M 0.867188 177.914062 " clip-rule="nonzero"/></clipPath><clipPath id="9508ee297a"><path d="M 0.867188 0.710938 L 78.074219 0.710938 L 78.074219 9.117188 L 0.867188 9.117188 Z M 0.867188 0.710938 " clip-rule="nonzero"/></clipPath><clipPath id="01ae38b8c0"><path d="M 0.867188 4.914062 L 78.058594 0.710938 L 78.058594 9.117188 Z M 0.867188 4.914062 " clip-rule="nonzero"/></clipPath><clipPath id="b31a126ca3"><rect x="0" width="79" y="0" height="10"/></clipPath><clipPath id="d454d8f8ca"><path d="M 150.414062 207.882812 L 227.621094 207.882812 L 227.621094 216.289062 L 150.414062 216.289062 Z M 150.414062 207.882812 " clip-rule="nonzero"/></clipPath><clipPath id="09bf8974d3"><path d="M 227.621094 212.085938 L 150.429688 216.289062 L 150.429688 207.882812 Z M 227.621094 212.085938 " clip-rule="nonzero"/></clipPath><clipPath id="4a8980a558"><path d="M 0.414062 0.882812 L 77.621094 0.882812 L 77.621094 9.289062 L 0.414062 9.289062 Z M 0.414062 0.882812 " clip-rule="nonzero"/></clipPath><clipPath id="f249689d48"><path d="M 77.621094 5.085938 L 0.429688 9.289062 L 0.429688 0.882812 Z M 77.621094 5.085938 " clip-rule="nonzero"/></clipPath><clipPath id="1fc9f4a30a"><rect x="0" width="78" y="0" height="10"/></clipPath><clipPath id="3f7b206683"><path d="M 0.867188 207.867188 L 78.074219 207.867188 L 78.074219 216.273438 L 0.867188 216.273438 Z M 0.867188 207.867188 " clip-rule="nonzero"/></clipPath><clipPath id="c90fd22510"><path d="M 0.867188 212.070312 L 78.058594 207.867188 L 78.058594 216.273438 Z M 0.867188 212.070312 " clip-rule="nonzero"/></clipPath><clipPath id="1ebc803344"><path d="M 0.867188 0.867188 L 78.074219 0.867188 L 78.074219 9.273438 L 0.867188 9.273438 Z M 0.867188 0.867188 " clip-rule="nonzero"/></clipPath><clipPath id="c31d818cbd"><path d="M 0.867188 5.070312 L 78.058594 0.867188 L 78.058594 9.273438 Z M 0.867188 5.070312 " clip-rule="nonzero"/></clipPath><clipPath id="61c54fdb5c"><rect x="0" width="79" y="0" height="10"/></clipPath><clipPath id="76016f8018"><path d="M 150.414062 173.726562 L 227.621094 173.726562 L 227.621094 182.132812 L 150.414062 182.132812 Z M 150.414062 173.726562 " clip-rule="nonzero"/></clipPath><clipPath id="720aba3fd6"><path d="M 227.621094 177.929688 L 150.429688 182.132812 L 150.429688 173.726562 Z M 227.621094 177.929688 " clip-rule="nonzero"/></clipPath><clipPath id="2003b98847"><path d="M 0.414062 0.726562 L 77.621094 0.726562 L 77.621094 9.132812 L 0.414062 9.132812 Z M 0.414062 0.726562 " clip-rule="nonzero"/></clipPath><clipPath id="de6dcee0af"><path d="M 77.621094 4.929688 L 0.429688 9.132812 L 0.429688 0.726562 Z M 77.621094 4.929688 " clip-rule="nonzero"/></clipPath><clipPath id="b8b7800de2"><rect x="0" width="78" y="0" height="10"/></clipPath><clipPath id="f0614a23f1"><path d="M 0.871094 176.242188 L 253.085938 176.242188 L 253.085938 213.761719 L 0.871094 213.761719 Z M 0.871094 176.242188 " clip-rule="nonzero"/></clipPath><clipPath id="bd39ae13c4"><path d="M 0.871094 0.242188 L 253.085938 0.242188 L 253.085938 37.761719 L 0.871094 37.761719 Z M 0.871094 0.242188 " clip-rule="nonzero"/></clipPath><clipPath id="af6592aa07"><rect x="0" width="254" y="0" height="38"/></clipPath><clipPath id="95f36b9d30"><rect x="0" width="250" y="0" height="17"/></clipPath><clipPath id="904c931107"><rect x="0" width="254" y="0" height="322"/></clipPath></defs><g transform="matrix(1, 0, 0, 1, 52, 18)"><g clip-path="url(#904c931107)"><g clip-path="url(#ff3870a493)"><g transform="matrix(1, 0, 0, 1, 16, 0)"><g clip-path="url(#6e10786d40)"><g fill="#212412" fill-opacity="1"><g transform="translate(3.039609, 229.921151)"><g><path d="M 7.515625 0 L 7.515625 -2.140625 L 15.671875 -2.140625 C 20.671875 -2.140625 24.566406 -3.285156 27.359375 -5.578125 C 30.148438 -7.867188 31.546875 -11.734375 31.546875 -17.171875 L 31.546875 -136.9375 C 31.546875 -141.9375 30.148438 -145.546875 27.359375 -147.765625 C 24.566406 -149.984375 20.671875 -151.09375 15.671875 -151.09375 L 7.515625 -151.09375 L 7.515625 -153.234375 L 53.015625 -153.234375 L 133.0625 -32.625 L 133.0625 -136.28125 C 133.0625 -141.582031 131.703125 -145.375 128.984375 -147.65625 C 126.265625 -149.945312 122.40625 -151.09375 117.40625 -151.09375 L 108.59375 -151.09375 L 108.59375 -153.234375 L 159.890625 -153.234375 L 159.890625 -151.09375 L 151.09375 -151.09375 C 146.082031 -151.09375 142.179688 -149.945312 139.390625 -147.65625 C 136.609375 -145.375 135.21875 -141.515625 135.21875 -136.078125 L 135.21875 0 L 127.0625 0 L 33.703125 -140.578125 L 33.703125 -17.171875 C 33.703125 -11.734375 35.0625 -7.867188 37.78125 -5.578125 C 40.5 -3.285156 44.359375 -2.140625 49.359375 -2.140625 L 59.015625 -2.140625 L 59.015625 0 Z M 7.515625 0 "/></g></g></g></g></g></g><g clip-path="url(#46d9550634)"><g transform="matrix(1, 0, 0, 1, 79, 28)"><g clip-path="url(#edd9d239bb)"><g clip-path="url(#e6b80e6970)"><g fill="#212412" fill-opacity="1"><g transform="translate(0.128271, 230.223558)"><g><path d="M 66.53125 0 L 17.390625 -139.9375 C 15.816406 -144.226562 13.882812 -147.160156 11.59375 -148.734375 C 9.300781 -150.304688 6.296875 -151.09375 2.578125 -151.09375 L 0 -151.09375 L 0 -153.234375 L 62.234375 -153.234375 L 62.234375 -151.09375 L 54.9375 -151.09375 C 51.082031 -151.09375 48.113281 -150.519531 46.03125 -149.375 C 43.957031 -148.226562 42.921875 -146.15625 42.921875 -143.15625 C 42.921875 -140.582031 43.640625 -137.289062 45.078125 -133.28125 L 71.25 -57.09375 C 76.257812 -42.78125 80.195312 -29.972656 83.0625 -18.671875 C 84.632812 -23.960938 86.421875 -29.828125 88.421875 -36.265625 C 90.429688 -42.710938 92.363281 -48.796875 94.21875 -54.515625 L 118.90625 -131.78125 C 120.476562 -136.21875 121.265625 -139.722656 121.265625 -142.296875 C 121.265625 -145.585938 120.15625 -147.875 117.9375 -149.15625 C 115.71875 -150.445312 112.175781 -151.09375 107.3125 -151.09375 L 94.21875 -151.09375 L 94.21875 -153.234375 L 146.15625 -153.234375 L 146.15625 -151.09375 L 138.859375 -151.09375 C 134.710938 -151.09375 131.421875 -149.910156 128.984375 -147.546875 C 126.554688 -145.191406 124.410156 -140.9375 122.546875 -134.78125 L 78.984375 0 Z M 66.53125 0 "/></g></g></g></g></g></g></g><g clip-path="url(#026f4ee1a7)"><g clip-path="url(#6c611b5979)"><g transform="matrix(1, 0, 0, 1, 0, 173)"><g clip-path="url(#b31a126ca3)"><g clip-path="url(#9508ee297a)"><g clip-path="url(#01ae38b8c0)"><path fill="#212412" d="M 0.867188 9.117188 L 0.867188 0.710938 L 78.074219 0.710938 L 78.074219 9.117188 Z M 0.867188 9.117188 " fill-opacity="1" fill-rule="nonzero"/></g></g></g></g></g></g><g clip-path="url(#d454d8f8ca)"><g clip-path="url(#09bf8974d3)"><g transform="matrix(1, 0, 0, 1, 150, 207)"><g clip-path="url(#1fc9f4a30a)"><g clip-path="url(#4a8980a558)"><g clip-path="url(#f249689d48)"><path fill="#212412" d="M 77.621094 0.882812 L 77.621094 9.289062 L 0.414062 9.289062 L 0.414062 0.882812 Z M 77.621094 0.882812 " fill-opacity="1" fill-rule="nonzero"/></g></g></g></g></g></g><g clip-path="url(#3f7b206683)"><g clip-path="url(#c90fd22510)"><g transform="matrix(1, 0, 0, 1, 0, 207)"><g clip-path="url(#61c54fdb5c)"><g clip-path="url(#1ebc803344)"><g clip-path="url(#c31d818cbd)"><path fill="#212412" d="M 0.867188 9.273438 L 0.867188 0.867188 L 78.074219 0.867188 L 78.074219 9.273438 Z M 0.867188 9.273438 " fill-opacity="1" fill-rule="nonzero"/></g></g></g></g></g></g><g clip-path="url(#76016f8018)"><g clip-path="url(#720aba3fd6)"><g transform="matrix(1, 0, 0, 1, 150, 173)"><g clip-path="url(#b8b7800de2)"><g clip-path="url(#2003b98847)"><g clip-path="url(#de6dcee0af)"><path fill="#212412" d="M 77.621094 0.726562 L 77.621094 9.132812 L 0.414062 9.132812 L 0.414062 0.726562 Z M 77.621094 0.726562 " fill-opacity="1" fill-rule="nonzero"/></g></g></g></g></g></g><g clip-path="url(#f0614a23f1)"><g transform="matrix(1, 0, 0, 1, 0, 176)"><g clip-path="url(#af6592aa07)"><g clip-path="url(#bd39ae13c4)"><path fill="#ffffff" d="M 0.871094 0.242188 L 253.085938 0.242188 L 253.085938 37.761719 L 0.871094 37.761719 Z M 0.871094 0.242188 " fill-opacity="1" fill-rule="nonzero"/></g></g></g></g><g transform="matrix(1, 0, 0, 1, 4, 186)"><g clip-path="url(#95f36b9d30)"><g fill="#212412" fill-opacity="1"><g transform="translate(1.190654, 12.945689)"><g><path d="M 1.03125 0 L 1.03125 -8.5625 L 3.921875 -8.5625 C 4.597656 -8.5625 5.148438 -8.4375 5.578125 -8.1875 C 6.003906 -7.945312 6.316406 -7.625 6.515625 -7.21875 C 6.722656 -6.8125 6.828125 -6.351562 6.828125 -5.84375 C 6.828125 -5.34375 6.722656 -4.882812 6.515625 -4.46875 C 6.316406 -4.0625 6.003906 -3.734375 5.578125 -3.484375 C 5.148438 -3.242188 4.601562 -3.125 3.9375 -3.125 L 2.078125 -3.125 L 2.078125 0 Z M 2.078125 -4.046875 L 3.90625 -4.046875 C 4.59375 -4.046875 5.082031 -4.21875 5.375 -4.5625 C 5.664062 -4.90625 5.8125 -5.332031 5.8125 -5.84375 C 5.8125 -6.363281 5.664062 -6.789062 5.375 -7.125 C 5.082031 -7.46875 4.585938 -7.640625 3.890625 -7.640625 L 2.078125 -7.640625 Z M 2.078125 -4.046875 "/></g></g></g><g fill="#212412" fill-opacity="1"><g transform="translate(13.221376, 12.945689)"><g><path d="M 1.03125 0 L 1.03125 -8.5625 L 2.078125 -8.5625 L 2.078125 -0.921875 L 6.046875 -0.921875 L 6.046875 0 Z M 1.03125 0 "/></g></g></g><g fill="#212412" fill-opacity="1"><g transform="translate(24.400112, 12.945689)"><g><path d="M 1.390625 0 L 0.296875 0 L 3.4375 -8.5625 L 4.515625 -8.5625 L 7.65625 0 L 6.5625 0 L 5.703125 -2.421875 L 2.25 -2.421875 Z M 2.578125 -3.34375 L 5.375 -3.34375 L 4.015625 -7.203125 L 3.9375 -7.203125 Z M 2.578125 -3.34375 "/></g></g></g><g fill="#212412" fill-opacity="1"><g transform="translate(36.9153, 12.945689)"><g><path d="M 7.828125 -8.5625 L 7.828125 0 L 6.8125 0 L 2.15625 -6.71875 L 2.078125 -6.71875 L 2.078125 0 L 1.03125 0 L 1.03125 -8.5625 L 2.03125 -8.5625 L 6.71875 -1.828125 L 6.796875 -1.828125 L 6.796875 -8.5625 Z M 7.828125 -8.5625 "/></g></g></g><g fill="#212412" fill-opacity="1"><g transform="translate(50.332589, 12.945689)"><g><path d="M 4.578125 -4.125 L 4.578125 -3.203125 L 0.828125 -3.203125 L 0.828125 -4.125 Z M 4.578125 -4.125 "/></g></g></g><g fill="#212412" fill-opacity="1"><g transform="translate(60.30851, 12.945689)"><g><path d="M 1.03125 0 L 1.03125 -8.5625 L 6.171875 -8.5625 L 6.171875 -7.640625 L 2.078125 -7.640625 L 2.078125 -4.75 L 5.78125 -4.75 L 5.78125 -3.828125 L 2.078125 -3.828125 L 2.078125 0 Z M 1.03125 0 "/></g></g></g><g fill="#212412" fill-opacity="1"><g transform="translate(71.771241, 12.945689)"><g><path d="M 8.25 -4.28125 C 8.25 -3.375 8.085938 -2.59375 7.765625 -1.9375 C 7.441406 -1.28125 6.992188 -0.773438 6.421875 -0.421875 C 5.859375 -0.0664062 5.210938 0.109375 4.484375 0.109375 C 3.753906 0.109375 3.101562 -0.0664062 2.53125 -0.421875 C 1.957031 -0.773438 1.507812 -1.28125 1.1875 -1.9375 C 0.863281 -2.59375 0.703125 -3.375 0.703125 -4.28125 C 0.703125 -5.175781 0.863281 -5.953125 1.1875 -6.609375 C 1.507812 -7.273438 1.957031 -7.785156 2.53125 -8.140625 C 3.101562 -8.492188 3.753906 -8.671875 4.484375 -8.671875 C 5.210938 -8.671875 5.859375 -8.492188 6.421875 -8.140625 C 6.992188 -7.785156 7.441406 -7.273438 7.765625 -6.609375 C 8.085938 -5.953125 8.25 -5.175781 8.25 -4.28125 Z M 7.25 -4.28125 C 7.25 -5.019531 7.125 -5.644531 6.875 -6.15625 C 6.632812 -6.664062 6.300781 -7.050781 5.875 -7.3125 C 5.457031 -7.570312 4.992188 -7.703125 4.484375 -7.703125 C 3.960938 -7.703125 3.488281 -7.570312 3.0625 -7.3125 C 2.644531 -7.050781 2.3125 -6.664062 2.0625 -6.15625 C 1.820312 -5.644531 1.703125 -5.019531 1.703125 -4.28125 C 1.703125 -3.539062 1.820312 -2.914062 2.0625 -2.40625 C 2.3125 -1.894531 2.644531 -1.507812 3.0625 -1.25 C 3.488281 -0.988281 3.960938 -0.859375 4.484375 -0.859375 C 4.992188 -0.859375 5.457031 -0.988281 5.875 -1.25 C 6.300781 -1.507812 6.632812 -1.894531 6.875 -2.40625 C 7.125 -2.914062 7.25 -3.539062 7.25 -4.28125 Z M 7.25 -4.28125 "/></g></g></g><g fill="#212412" fill-opacity="1"><g transform="translate(85.288773, 12.945689)"><g><path d="M 7.921875 -5.875 L 6.890625 -5.875 C 6.804688 -6.269531 6.644531 -6.601562 6.40625 -6.875 C 6.164062 -7.144531 5.878906 -7.347656 5.546875 -7.484375 C 5.210938 -7.628906 4.859375 -7.703125 4.484375 -7.703125 C 3.960938 -7.703125 3.488281 -7.570312 3.0625 -7.3125 C 2.644531 -7.050781 2.3125 -6.664062 2.0625 -6.15625 C 1.820312 -5.644531 1.703125 -5.019531 1.703125 -4.28125 C 1.703125 -3.539062 1.820312 -2.914062 2.0625 -2.40625 C 2.3125 -1.894531 2.644531 -1.507812 3.0625 -1.25 C 3.488281 -0.988281 3.960938 -0.859375 4.484375 -0.859375 C 4.859375 -0.859375 5.210938 -0.925781 5.546875 -1.0625 C 5.878906 -1.195312 6.164062 -1.398438 6.40625 -1.671875 C 6.644531 -1.941406 6.804688 -2.273438 6.890625 -2.671875 L 7.921875 -2.671875 C 7.816406 -2.085938 7.597656 -1.585938 7.265625 -1.171875 C 6.941406 -0.753906 6.539062 -0.4375 6.0625 -0.21875 C 5.582031 0 5.054688 0.109375 4.484375 0.109375 C 3.753906 0.109375 3.101562 -0.0664062 2.53125 -0.421875 C 1.957031 -0.773438 1.507812 -1.28125 1.1875 -1.9375 C 0.863281 -2.59375 0.703125 -3.375 0.703125 -4.28125 C 0.703125 -5.175781 0.863281 -5.953125 1.1875 -6.609375 C 1.507812 -7.273438 1.957031 -7.785156 2.53125 -8.140625 C 3.101562 -8.492188 3.753906 -8.671875 4.484375 -8.671875 C 5.054688 -8.671875 5.582031 -8.5625 6.0625 -8.34375 C 6.539062 -8.125 6.941406 -7.804688 7.265625 -7.390625 C 7.597656 -6.972656 7.816406 -6.46875 7.921875 -5.875 Z M 7.921875 -5.875 "/></g></g></g><g fill="#212412" fill-opacity="1"><g transform="translate(98.405361, 12.945689)"><g><path d="M 6.65625 -8.5625 L 7.6875 -8.5625 L 7.6875 -2.890625 C 7.6875 -2.253906 7.535156 -1.707031 7.234375 -1.25 C 6.929688 -0.789062 6.523438 -0.441406 6.015625 -0.203125 C 5.515625 0.0351562 4.960938 0.15625 4.359375 0.15625 C 3.753906 0.15625 3.203125 0.0351562 2.703125 -0.203125 C 2.203125 -0.441406 1.796875 -0.789062 1.484375 -1.25 C 1.179688 -1.707031 1.03125 -2.253906 1.03125 -2.890625 L 1.03125 -8.5625 L 2.078125 -8.5625 L 2.078125 -2.890625 C 2.078125 -2.441406 2.179688 -2.0625 2.390625 -1.75 C 2.597656 -1.445312 2.875 -1.210938 3.21875 -1.046875 C 3.570312 -0.890625 3.953125 -0.8125 4.359375 -0.8125 C 4.765625 -0.8125 5.140625 -0.890625 5.484375 -1.046875 C 5.835938 -1.210938 6.117188 -1.445312 6.328125 -1.75 C 6.546875 -2.0625 6.65625 -2.441406 6.65625 -2.890625 Z M 6.65625 -8.5625 "/></g></g></g><g fill="#212412" fill-opacity="1"><g transform="translate(111.689012, 12.945689)"><g><path d="M 5.71875 -6.421875 C 5.664062 -6.835938 5.460938 -7.160156 5.109375 -7.390625 C 4.753906 -7.628906 4.316406 -7.75 3.796875 -7.75 C 3.222656 -7.75 2.765625 -7.613281 2.421875 -7.34375 C 2.078125 -7.082031 1.90625 -6.742188 1.90625 -6.328125 C 1.90625 -6.023438 2 -5.78125 2.1875 -5.59375 C 2.375 -5.40625 2.59375 -5.257812 2.84375 -5.15625 C 3.101562 -5.050781 3.34375 -4.96875 3.5625 -4.90625 L 4.421875 -4.671875 C 4.648438 -4.617188 4.898438 -4.539062 5.171875 -4.4375 C 5.453125 -4.332031 5.71875 -4.191406 5.96875 -4.015625 C 6.21875 -3.835938 6.421875 -3.609375 6.578125 -3.328125 C 6.742188 -3.054688 6.828125 -2.722656 6.828125 -2.328125 C 6.828125 -1.859375 6.707031 -1.4375 6.46875 -1.0625 C 6.226562 -0.695312 5.878906 -0.398438 5.421875 -0.171875 C 4.960938 0.046875 4.40625 0.15625 3.75 0.15625 C 2.820312 0.15625 2.085938 -0.0625 1.546875 -0.5 C 1.015625 -0.9375 0.722656 -1.503906 0.671875 -2.203125 L 1.734375 -2.203125 C 1.765625 -1.878906 1.875 -1.613281 2.0625 -1.40625 C 2.257812 -1.195312 2.503906 -1.039062 2.796875 -0.9375 C 3.085938 -0.832031 3.40625 -0.78125 3.75 -0.78125 C 4.144531 -0.78125 4.5 -0.84375 4.8125 -0.96875 C 5.125 -1.101562 5.367188 -1.285156 5.546875 -1.515625 C 5.734375 -1.753906 5.828125 -2.03125 5.828125 -2.34375 C 5.828125 -2.625 5.75 -2.851562 5.59375 -3.03125 C 5.4375 -3.207031 5.226562 -3.351562 4.96875 -3.46875 C 4.707031 -3.582031 4.425781 -3.679688 4.125 -3.765625 L 3.078125 -4.0625 C 2.410156 -4.25 1.878906 -4.519531 1.484375 -4.875 C 1.097656 -5.238281 0.90625 -5.707031 0.90625 -6.28125 C 0.90625 -6.757812 1.035156 -7.175781 1.296875 -7.53125 C 1.554688 -7.894531 1.90625 -8.175781 2.34375 -8.375 C 2.789062 -8.570312 3.285156 -8.671875 3.828125 -8.671875 C 4.378906 -8.671875 4.867188 -8.570312 5.296875 -8.375 C 5.722656 -8.175781 6.0625 -7.90625 6.3125 -7.5625 C 6.570312 -7.226562 6.707031 -6.847656 6.71875 -6.421875 Z M 5.71875 -6.421875 "/></g></g></g><g fill="#212412" fill-opacity="1"><g transform="translate(123.753143, 12.945689)"><g><path d="M 4.578125 -4.125 L 4.578125 -3.203125 L 0.828125 -3.203125 L 0.828125 -4.125 Z M 4.578125 -4.125 "/></g></g></g><g fill="#212412" fill-opacity="1"><g transform="translate(133.729064, 12.945689)"><g><path d="M 1.03125 0 L 1.03125 -8.5625 L 6.171875 -8.5625 L 6.171875 -7.640625 L 2.078125 -7.640625 L 2.078125 -4.75 L 5.78125 -4.75 L 5.78125 -3.828125 L 2.078125 -3.828125 L 2.078125 0 Z M 1.03125 0 "/></g></g></g><g fill="#212412" fill-opacity="1"><g transform="translate(145.191795, 12.945689)"><g><path d="M 1.03125 0 L 1.03125 -8.5625 L 2.078125 -8.5625 L 2.078125 -0.921875 L 6.046875 -0.921875 L 6.046875 0 Z M 1.03125 0 "/></g></g></g><g fill="#212412" fill-opacity="1"><g transform="translate(156.370531, 12.945689)"><g><path d="M 8.25 -4.28125 C 8.25 -3.375 8.085938 -2.59375 7.765625 -1.9375 C 7.441406 -1.28125 6.992188 -0.773438 6.421875 -0.421875 C 5.859375 -0.0664062 5.210938 0.109375 4.484375 0.109375 C 3.753906 0.109375 3.101562 -0.0664062 2.53125 -0.421875 C 1.957031 -0.773438 1.507812 -1.28125 1.1875 -1.9375 C 0.863281 -2.59375 0.703125 -3.375 0.703125 -4.28125 C 0.703125 -5.175781 0.863281 -5.953125 1.1875 -6.609375 C 1.507812 -7.273438 1.957031 -7.785156 2.53125 -8.140625 C 3.101562 -8.492188 3.753906 -8.671875 4.484375 -8.671875 C 5.210938 -8.671875 5.859375 -8.492188 6.421875 -8.140625 C 6.992188 -7.785156 7.441406 -7.273438 7.765625 -6.609375 C 8.085938 -5.953125 8.25 -5.175781 8.25 -4.28125 Z M 7.25 -4.28125 C 7.25 -5.019531 7.125 -5.644531 6.875 -6.15625 C 6.632812 -6.664062 6.300781 -7.050781 5.875 -7.3125 C 5.457031 -7.570312 4.992188 -7.703125 4.484375 -7.703125 C 3.960938 -7.703125 3.488281 -7.570312 3.0625 -7.3125 C 2.644531 -7.050781 2.3125 -6.664062 2.0625 -6.15625 C 1.820312 -5.644531 1.703125 -5.019531 1.703125 -4.28125 C 1.703125 -3.539062 1.820312 -2.914062 2.0625 -2.40625 C 2.3125 -1.894531 2.644531 -1.507812 3.0625 -1.25 C 3.488281 -0.988281 3.960938 -0.859375 4.484375 -0.859375 C 4.992188 -0.859375 5.457031 -0.988281 5.875 -1.25 C 6.300781 -1.507812 6.632812 -1.894531 6.875 -2.40625 C 7.125 -2.914062 7.25 -3.539062 7.25 -4.28125 Z M 7.25 -4.28125 "/></g></g></g><g fill="#212412" fill-opacity="1"><g transform="translate(169.888063, 12.945689)"><g><path d="M 2.59375 0 L 0.25 -8.5625 L 1.296875 -8.5625 L 3.09375 -1.59375 L 3.171875 -1.59375 L 5 -8.5625 L 6.171875 -8.5625 L 7.984375 -1.59375 L 8.078125 -1.59375 L 9.859375 -8.5625 L 10.90625 -8.5625 L 8.578125 0 L 7.5 0 L 5.609375 -6.8125 L 5.546875 -6.8125 L 3.65625 0 Z M 2.59375 0 "/></g></g></g><g fill="#212412" fill-opacity="1"><g transform="translate(185.610738, 12.945689)"><g><path d="M 4.578125 -4.125 L 4.578125 -3.203125 L 0.828125 -3.203125 L 0.828125 -4.125 Z M 4.578125 -4.125 "/></g></g></g><g fill="#212412" fill-opacity="1"><g transform="translate(195.586659, 12.945689)"><g><path d="M 6.890625 -5.875 C 6.703125 -6.445312 6.398438 -6.894531 5.984375 -7.21875 C 5.578125 -7.539062 5.066406 -7.703125 4.453125 -7.703125 C 3.941406 -7.703125 3.476562 -7.570312 3.0625 -7.3125 C 2.644531 -7.050781 2.3125 -6.664062 2.0625 -6.15625 C 1.820312 -5.644531 1.703125 -5.019531 1.703125 -4.28125 C 1.703125 -3.539062 1.828125 -2.914062 2.078125 -2.40625 C 2.328125 -1.894531 2.660156 -1.507812 3.078125 -1.25 C 3.503906 -0.988281 3.984375 -0.859375 4.515625 -0.859375 C 4.992188 -0.859375 5.414062 -0.957031 5.78125 -1.15625 C 6.15625 -1.363281 6.445312 -1.65625 6.65625 -2.03125 C 6.875 -2.40625 6.988281 -2.847656 7 -3.359375 L 4.75 -3.359375 L 4.75 -4.28125 L 8 -4.28125 L 8 -3.359375 C 8 -2.648438 7.847656 -2.035156 7.546875 -1.515625 C 7.253906 -0.992188 6.84375 -0.59375 6.3125 -0.3125 C 5.789062 -0.03125 5.191406 0.109375 4.515625 0.109375 C 3.753906 0.109375 3.085938 -0.0664062 2.515625 -0.421875 C 1.941406 -0.773438 1.492188 -1.28125 1.171875 -1.9375 C 0.859375 -2.59375 0.703125 -3.375 0.703125 -4.28125 C 0.703125 -5.175781 0.859375 -5.953125 1.171875 -6.609375 C 1.492188 -7.273438 1.9375 -7.785156 2.5 -8.140625 C 3.0625 -8.492188 3.710938 -8.671875 4.453125 -8.671875 C 5.046875 -8.671875 5.585938 -8.550781 6.078125 -8.3125 C 6.566406 -8.082031 6.972656 -7.753906 7.296875 -7.328125 C 7.628906 -6.910156 7.847656 -6.425781 7.953125 -5.875 Z M 6.890625 -5.875 "/></g></g></g><g fill="#212412" fill-opacity="1"><g transform="translate(208.887014, 12.945689)"><g><path d="M 1.03125 0 L 1.03125 -8.5625 L 2.078125 -8.5625 L 2.078125 -0.921875 L 6.046875 -0.921875 L 6.046875 0 Z M 1.03125 0 "/></g></g></g><g fill="#212412" fill-opacity="1"><g transform="translate(220.06575, 12.945689)"><g><path d="M 8.25 -4.28125 C 8.25 -3.375 8.085938 -2.59375 7.765625 -1.9375 C 7.441406 -1.28125 6.992188 -0.773438 6.421875 -0.421875 C 5.859375 -0.0664062 5.210938 0.109375 4.484375 0.109375 C 3.753906 0.109375 3.101562 -0.0664062 2.53125 -0.421875 C 1.957031 -0.773438 1.507812 -1.28125 1.1875 -1.9375 C 0.863281 -2.59375 0.703125 -3.375 0.703125 -4.28125 C 0.703125 -5.175781 0.863281 -5.953125 1.1875 -6.609375 C 1.507812 -7.273438 1.957031 -7.785156 2.53125 -8.140625 C 3.101562 -8.492188 3.753906 -8.671875 4.484375 -8.671875 C 5.210938 -8.671875 5.859375 -8.492188 6.421875 -8.140625 C 6.992188 -7.785156 7.441406 -7.273438 7.765625 -6.609375 C 8.085938 -5.953125 8.25 -5.175781 8.25 -4.28125 Z M 7.25 -4.28125 C 7.25 -5.019531 7.125 -5.644531 6.875 -6.15625 C 6.632812 -6.664062 6.300781 -7.050781 5.875 -7.3125 C 5.457031 -7.570312 4.992188 -7.703125 4.484375 -7.703125 C 3.960938 -7.703125 3.488281 -7.570312 3.0625 -7.3125 C 2.644531 -7.050781 2.3125 -6.664062 2.0625 -6.15625 C 1.820312 -5.644531 1.703125 -5.019531 1.703125 -4.28125 C 1.703125 -3.539062 1.820312 -2.914062 2.0625 -2.40625 C 2.3125 -1.894531 2.644531 -1.507812 3.0625 -1.25 C 3.488281 -0.988281 3.960938 -0.859375 4.484375 -0.859375 C 4.992188 -0.859375 5.457031 -0.988281 5.875 -1.25 C 6.300781 -1.507812 6.632812 -1.894531 6.875 -2.40625 C 7.125 -2.914062 7.25 -3.539062 7.25 -4.28125 Z M 7.25 -4.28125 "/></g></g></g><g fill="#212412" fill-opacity="1"><g transform="translate(233.583282, 12.945689)"><g><path d="M 2.59375 0 L 0.25 -8.5625 L 1.296875 -8.5625 L 3.09375 -1.59375 L 3.171875 -1.59375 L 5 -8.5625 L 6.171875 -8.5625 L 7.984375 -1.59375 L 8.078125 -1.59375 L 9.859375 -8.5625 L 10.90625 -8.5625 L 8.578125 0 L 7.5 0 L 5.609375 -6.8125 L 5.546875 -6.8125 L 3.65625 0 Z M 2.59375 0 "/></g></g></g></g></g></g></g></svg>