<svg xmlns="http://www.w3.org/2000/svg" xmlns:xlink="http://www.w3.org/1999/xlink" width="500" zoomAndPan="magnify" viewBox="0 0 375 374.999991" height="500" preserveAspectRatio="xMidYMid meet" version="1.0"><defs><g/><clipPath id="280386decd"><path d="M 16 0.238281 L 186 0.238281 L 186 294 L 16 294 Z M 16 0.238281 " clip-rule="nonzero"/></clipPath><clipPath id="77b1035c47"><rect x="0" width="170" y="0" height="294"/></clipPath><clipPath id="0bfae10ab0"><path d="M 78 28 L 229 28 L 229 321.601562 L 78 321.601562 Z M 78 28 " clip-rule="nonzero"/></clipPath><clipPath id="753afbe6cb"><path d="M 0.441406 76 L 147 76 L 147 231 L 0.441406 231 Z M 0.441406 76 " clip-rule="nonzero"/></clipPath><clipPath id="c1189e6d00"><rect x="0" width="151" y="0" height="294"/></clipPath><clipPath id="64e63c2d5f"><path d="M 0.496094 173.660156 L 77.679688 173.660156 L 77.679688 182.066406 L 0.496094 182.066406 Z M 0.496094 173.660156 " clip-rule="nonzero"/></clipPath><clipPath id="b339532f5a"><path d="M 0.496094 177.863281 L 77.664062 173.660156 L 77.664062 182.066406 Z M 0.496094 177.863281 " clip-rule="nonzero"/></clipPath><clipPath id="a82310ca22"><path d="M 0.496094 0.660156 L 77.679688 0.660156 L 77.679688 9.066406 L 0.496094 9.066406 Z M 0.496094 0.660156 " clip-rule="nonzero"/></clipPath><clipPath id="d02a8fce31"><path d="M 0.496094 4.863281 L 77.664062 0.660156 L 77.664062 9.066406 Z M 0.496094 4.863281 " clip-rule="nonzero"/></clipPath><clipPath id="fdb895e7d6"><rect x="0" width="78" y="0" height="10"/></clipPath><clipPath id="a94943f148"><path d="M 150 207.820312 L 227.179688 207.820312 L 227.179688 216.222656 L 150 216.222656 Z M 150 207.820312 " clip-rule="nonzero"/></clipPath><clipPath id="b8027e1b98"><path d="M 227.179688 212.019531 L 150.011719 216.222656 L 150.011719 207.820312 Z M 227.179688 212.019531 " clip-rule="nonzero"/></clipPath><clipPath id="7dcb96fc90"><path d="M 0 0.820312 L 77.179688 0.820312 L 77.179688 9.222656 L 0 9.222656 Z M 0 0.820312 " clip-rule="nonzero"/></clipPath><clipPath id="902b00eb2d"><path d="M 77.179688 5.019531 L 0.0117188 9.222656 L 0.0117188 0.820312 Z M 77.179688 5.019531 " clip-rule="nonzero"/></clipPath><clipPath id="8ba6b36458"><rect x="0" width="78" y="0" height="10"/></clipPath><clipPath id="e64218ef74"><path d="M 0.496094 207.804688 L 77.679688 207.804688 L 77.679688 216.207031 L 0.496094 216.207031 Z M 0.496094 207.804688 " clip-rule="nonzero"/></clipPath><clipPath id="ce2c05e1c1"><path d="M 0.496094 212.003906 L 77.664062 207.804688 L 77.664062 216.207031 Z M 0.496094 212.003906 " clip-rule="nonzero"/></clipPath><clipPath id="457115bd03"><path d="M 0.496094 0.804688 L 77.679688 0.804688 L 77.679688 9.207031 L 0.496094 9.207031 Z M 0.496094 0.804688 " clip-rule="nonzero"/></clipPath><clipPath id="512dd8684d"><path d="M 0.496094 5.003906 L 77.664062 0.804688 L 77.664062 9.207031 Z M 0.496094 5.003906 " clip-rule="nonzero"/></clipPath><clipPath id="1ca11ca34c"><rect x="0" width="78" y="0" height="10"/></clipPath><clipPath id="a5244d2258"><path d="M 150 173.675781 L 227.179688 173.675781 L 227.179688 182.082031 L 150 182.082031 Z M 150 173.675781 " clip-rule="nonzero"/></clipPath><clipPath id="0d24c789a9"><path d="M 227.179688 177.878906 L 150.011719 182.082031 L 150.011719 173.675781 Z M 227.179688 177.878906 " clip-rule="nonzero"/></clipPath><clipPath id="6f9d2dc610"><path d="M 0 0.675781 L 77.179688 0.675781 L 77.179688 9.082031 L 0 9.082031 Z M 0 0.675781 " clip-rule="nonzero"/></clipPath><clipPath id="151497db9e"><path d="M 77.179688 4.878906 L 0.0117188 9.082031 L 0.0117188 0.675781 Z M 77.179688 4.878906 " clip-rule="nonzero"/></clipPath><clipPath id="00ded747c5"><rect x="0" width="78" y="0" height="10"/></clipPath><clipPath id="c7a18d9670"><path d="M 0.503906 176.191406 L 252.632812 176.191406 L 252.632812 213.695312 L 0.503906 213.695312 Z M 0.503906 176.191406 " clip-rule="nonzero"/></clipPath><clipPath id="622d5a5058"><path d="M 0.503906 0.191406 L 252.632812 0.191406 L 252.632812 37.695312 L 0.503906 37.695312 Z M 0.503906 0.191406 " clip-rule="nonzero"/></clipPath><clipPath id="f32f966c6b"><rect x="0" width="253" y="0" height="38"/></clipPath><clipPath id="f2dac95bbb"><path d="M 4 186 L 253.398438 186 L 253.398438 202 L 4 202 Z M 4 186 " clip-rule="nonzero"/></clipPath><clipPath id="1bb278e988"><rect x="0" width="250" y="0" height="16"/></clipPath><clipPath id="4551642b74"><rect x="0" width="254" y="0" height="322"/></clipPath></defs><g transform="matrix(1, 0, 0, 1, 55, 18)"><g clip-path="url(#4551642b74)"><g clip-path="url(#280386decd)"><g transform="matrix(1, 0, 0, 1, 16, 0)"><g clip-path="url(#77b1035c47)"><g fill="#ffffff" fill-opacity="1"><g transform="translate(2.664933, 229.851217)"><g><path d="M 7.515625 0 L 7.515625 -2.140625 L 15.65625 -2.140625 C 20.664062 -2.140625 24.5625 -3.285156 27.34375 -5.578125 C 30.132812 -7.867188 31.53125 -11.726562 31.53125 -17.15625 L 31.53125 -136.875 C 31.53125 -141.882812 30.132812 -145.5 27.34375 -147.71875 C 24.5625 -149.9375 20.664062 -151.046875 15.65625 -151.046875 L 7.515625 -151.046875 L 7.515625 -153.1875 L 53 -153.1875 L 133.015625 -32.609375 L 133.015625 -136.234375 C 133.015625 -141.523438 131.65625 -145.316406 128.9375 -147.609375 C 126.21875 -149.898438 122.359375 -151.046875 117.359375 -151.046875 L 108.5625 -151.046875 L 108.5625 -153.1875 L 159.84375 -153.1875 L 159.84375 -151.046875 L 151.046875 -151.046875 C 146.035156 -151.046875 142.132812 -149.898438 139.34375 -147.609375 C 136.5625 -145.316406 135.171875 -141.453125 135.171875 -136.015625 L 135.171875 0 L 127.015625 0 L 33.6875 -140.53125 L 33.6875 -17.15625 C 33.6875 -11.726562 35.046875 -7.867188 37.765625 -5.578125 C 40.484375 -3.285156 44.34375 -2.140625 49.34375 -2.140625 L 59 -2.140625 L 59 0 Z M 7.515625 0 "/></g></g></g></g></g></g><g clip-path="url(#0bfae10ab0)"><g transform="matrix(1, 0, 0, 1, 78, 28)"><g clip-path="url(#c1189e6d00)"><g clip-path="url(#753afbe6cb)"><g fill="#ffffff" fill-opacity="1"><g transform="translate(0.733624, 230.144218)"><g><path d="M 66.515625 0 L 17.375 -139.890625 C 15.800781 -144.179688 13.867188 -147.113281 11.578125 -148.6875 C 9.296875 -150.257812 6.296875 -151.046875 2.578125 -151.046875 L 0 -151.046875 L 0 -153.1875 L 62.21875 -153.1875 L 62.21875 -151.046875 L 54.921875 -151.046875 C 51.054688 -151.046875 48.085938 -150.472656 46.015625 -149.328125 C 43.941406 -148.179688 42.90625 -146.109375 42.90625 -143.109375 C 42.90625 -140.523438 43.625 -137.234375 45.0625 -133.234375 L 71.234375 -57.0625 C 76.234375 -42.757812 80.164062 -29.960938 83.03125 -18.671875 C 84.601562 -23.960938 86.390625 -29.820312 88.390625 -36.25 C 90.390625 -42.6875 92.320312 -48.769531 94.1875 -54.5 L 118.859375 -131.734375 C 120.429688 -136.160156 121.21875 -139.664062 121.21875 -142.25 C 121.21875 -145.53125 120.109375 -147.816406 117.890625 -149.109375 C 115.671875 -150.398438 112.132812 -151.046875 107.28125 -151.046875 L 94.1875 -151.046875 L 94.1875 -153.1875 L 146.109375 -153.1875 L 146.109375 -151.046875 L 138.8125 -151.046875 C 134.664062 -151.046875 131.375 -149.863281 128.9375 -147.5 C 126.507812 -145.144531 124.363281 -140.890625 122.5 -134.734375 L 78.953125 0 Z M 66.515625 0 "/></g></g></g></g></g></g></g><g clip-path="url(#64e63c2d5f)"><g clip-path="url(#b339532f5a)"><g transform="matrix(1, 0, 0, 1, 0, 173)"><g clip-path="url(#fdb895e7d6)"><g clip-path="url(#a82310ca22)"><g clip-path="url(#d02a8fce31)"><path fill="#212412" d="M 0.496094 9.066406 L 0.496094 0.660156 L 77.679688 0.660156 L 77.679688 9.066406 Z M 0.496094 9.066406 " fill-opacity="1" fill-rule="nonzero"/></g></g></g></g></g></g><g clip-path="url(#a94943f148)"><g clip-path="url(#b8027e1b98)"><g transform="matrix(1, 0, 0, 1, 150, 207)"><g clip-path="url(#8ba6b36458)"><g clip-path="url(#7dcb96fc90)"><g clip-path="url(#902b00eb2d)"><path fill="#212412" d="M 77.179688 0.820312 L 77.179688 9.222656 L -0.00390625 9.222656 L -0.00390625 0.820312 Z M 77.179688 0.820312 " fill-opacity="1" fill-rule="nonzero"/></g></g></g></g></g></g><g clip-path="url(#e64218ef74)"><g clip-path="url(#ce2c05e1c1)"><g transform="matrix(1, 0, 0, 1, 0, 207)"><g clip-path="url(#1ca11ca34c)"><g clip-path="url(#457115bd03)"><g clip-path="url(#512dd8684d)"><path fill="#212412" d="M 0.496094 9.207031 L 0.496094 0.804688 L 77.679688 0.804688 L 77.679688 9.207031 Z M 0.496094 9.207031 " fill-opacity="1" fill-rule="nonzero"/></g></g></g></g></g></g><g clip-path="url(#a5244d2258)"><g clip-path="url(#0d24c789a9)"><g transform="matrix(1, 0, 0, 1, 150, 173)"><g clip-path="url(#00ded747c5)"><g clip-path="url(#6f9d2dc610)"><g clip-path="url(#151497db9e)"><path fill="#212412" d="M 77.179688 0.675781 L 77.179688 9.082031 L -0.00390625 9.082031 L -0.00390625 0.675781 Z M 77.179688 0.675781 " fill-opacity="1" fill-rule="nonzero"/></g></g></g></g></g></g><g clip-path="url(#c7a18d9670)"><g transform="matrix(1, 0, 0, 1, 0, 176)"><g clip-path="url(#f32f966c6b)"><g clip-path="url(#622d5a5058)"><path fill="#000000" d="M 0.503906 0.191406 L 252.632812 0.191406 L 252.632812 37.695312 L 0.503906 37.695312 Z M 0.503906 0.191406 " fill-opacity="1" fill-rule="nonzero"/></g></g></g></g><g clip-path="url(#f2dac95bbb)"><g transform="matrix(1, 0, 0, 1, 4, 186)"><g clip-path="url(#1bb278e988)"><g fill="#ffffff" fill-opacity="1"><g transform="translate(0.820579, 12.886072)"><g><path d="M 1.03125 0 L 1.03125 -8.546875 L 3.921875 -8.546875 C 4.585938 -8.546875 5.132812 -8.425781 5.5625 -8.1875 C 5.988281 -7.945312 6.304688 -7.617188 6.515625 -7.203125 C 6.722656 -6.796875 6.828125 -6.34375 6.828125 -5.84375 C 6.828125 -5.34375 6.722656 -4.882812 6.515625 -4.46875 C 6.316406 -4.050781 6.003906 -3.722656 5.578125 -3.484375 C 5.148438 -3.242188 4.601562 -3.125 3.9375 -3.125 L 2.0625 -3.125 L 2.0625 0 Z M 2.0625 -4.03125 L 3.90625 -4.03125 C 4.59375 -4.03125 5.082031 -4.203125 5.375 -4.546875 C 5.664062 -4.898438 5.8125 -5.332031 5.8125 -5.84375 C 5.8125 -6.351562 5.664062 -6.773438 5.375 -7.109375 C 5.082031 -7.453125 4.585938 -7.625 3.890625 -7.625 L 2.0625 -7.625 Z M 2.0625 -4.03125 "/></g></g></g><g fill="#ffffff" fill-opacity="1"><g transform="translate(12.847303, 12.886072)"><g><path d="M 1.03125 0 L 1.03125 -8.546875 L 2.0625 -8.546875 L 2.0625 -0.921875 L 6.046875 -0.921875 L 6.046875 0 Z M 1.03125 0 "/></g></g></g><g fill="#ffffff" fill-opacity="1"><g transform="translate(24.022324, 12.886072)"><g><path d="M 1.390625 0 L 0.296875 0 L 3.4375 -8.546875 L 4.5 -8.546875 L 7.640625 0 L 6.5625 0 L 5.703125 -2.421875 L 2.25 -2.421875 Z M 2.5625 -3.34375 L 5.375 -3.34375 L 4 -7.1875 L 3.9375 -7.1875 Z M 2.5625 -3.34375 "/></g></g></g><g fill="#ffffff" fill-opacity="1"><g transform="translate(36.533353, 12.886072)"><g><path d="M 7.8125 -8.546875 L 7.8125 0 L 6.8125 0 L 2.15625 -6.703125 L 2.0625 -6.703125 L 2.0625 0 L 1.03125 0 L 1.03125 -8.546875 L 2.03125 -8.546875 L 6.703125 -1.8125 L 6.796875 -1.8125 L 6.796875 -8.546875 Z M 7.8125 -8.546875 "/></g></g></g><g fill="#ffffff" fill-opacity="1"><g transform="translate(49.946183, 12.886072)"><g><path d="M 4.578125 -4.125 L 4.578125 -3.203125 L 0.828125 -3.203125 L 0.828125 -4.125 Z M 4.578125 -4.125 "/></g></g></g><g fill="#ffffff" fill-opacity="1"><g transform="translate(59.918789, 12.886072)"><g><path d="M 1.03125 0 L 1.03125 -8.546875 L 6.15625 -8.546875 L 6.15625 -7.625 L 2.0625 -7.625 L 2.0625 -4.734375 L 5.78125 -4.734375 L 5.78125 -3.828125 L 2.0625 -3.828125 L 2.0625 0 Z M 1.03125 0 "/></g></g></g><g fill="#ffffff" fill-opacity="1"><g transform="translate(71.37771, 12.886072)"><g><path d="M 8.25 -4.265625 C 8.25 -3.367188 8.082031 -2.59375 7.75 -1.9375 C 7.425781 -1.28125 6.976562 -0.773438 6.40625 -0.421875 C 5.84375 -0.0664062 5.195312 0.109375 4.46875 0.109375 C 3.738281 0.109375 3.085938 -0.0664062 2.515625 -0.421875 C 1.953125 -0.773438 1.507812 -1.28125 1.1875 -1.9375 C 0.863281 -2.59375 0.703125 -3.367188 0.703125 -4.265625 C 0.703125 -5.171875 0.863281 -5.953125 1.1875 -6.609375 C 1.507812 -7.265625 1.953125 -7.769531 2.515625 -8.125 C 3.085938 -8.476562 3.738281 -8.65625 4.46875 -8.65625 C 5.195312 -8.65625 5.84375 -8.476562 6.40625 -8.125 C 6.976562 -7.769531 7.425781 -7.265625 7.75 -6.609375 C 8.082031 -5.953125 8.25 -5.171875 8.25 -4.265625 Z M 7.25 -4.265625 C 7.25 -5.003906 7.125 -5.628906 6.875 -6.140625 C 6.625 -6.648438 6.289062 -7.035156 5.875 -7.296875 C 5.457031 -7.554688 4.988281 -7.6875 4.46875 -7.6875 C 3.957031 -7.6875 3.488281 -7.554688 3.0625 -7.296875 C 2.644531 -7.035156 2.3125 -6.648438 2.0625 -6.140625 C 1.820312 -5.628906 1.703125 -5.003906 1.703125 -4.265625 C 1.703125 -3.523438 1.820312 -2.898438 2.0625 -2.390625 C 2.3125 -1.890625 2.644531 -1.503906 3.0625 -1.234375 C 3.488281 -0.972656 3.957031 -0.84375 4.46875 -0.84375 C 4.988281 -0.84375 5.457031 -0.972656 5.875 -1.234375 C 6.289062 -1.503906 6.625 -1.890625 6.875 -2.390625 C 7.125 -2.898438 7.25 -3.523438 7.25 -4.265625 Z M 7.25 -4.265625 "/></g></g></g><g fill="#ffffff" fill-opacity="1"><g transform="translate(84.89075, 12.886072)"><g><path d="M 7.90625 -5.875 L 6.875 -5.875 C 6.789062 -6.269531 6.628906 -6.601562 6.390625 -6.875 C 6.160156 -7.144531 5.878906 -7.347656 5.546875 -7.484375 C 5.210938 -7.617188 4.851562 -7.6875 4.46875 -7.6875 C 3.957031 -7.6875 3.488281 -7.554688 3.0625 -7.296875 C 2.644531 -7.035156 2.3125 -6.648438 2.0625 -6.140625 C 1.820312 -5.628906 1.703125 -5.003906 1.703125 -4.265625 C 1.703125 -3.523438 1.820312 -2.898438 2.0625 -2.390625 C 2.3125 -1.890625 2.644531 -1.503906 3.0625 -1.234375 C 3.488281 -0.972656 3.957031 -0.84375 4.46875 -0.84375 C 4.851562 -0.84375 5.210938 -0.910156 5.546875 -1.046875 C 5.878906 -1.191406 6.160156 -1.398438 6.390625 -1.671875 C 6.628906 -1.941406 6.789062 -2.273438 6.875 -2.671875 L 7.90625 -2.671875 C 7.800781 -2.085938 7.585938 -1.585938 7.265625 -1.171875 C 6.941406 -0.753906 6.535156 -0.4375 6.046875 -0.21875 C 5.566406 0 5.039062 0.109375 4.46875 0.109375 C 3.738281 0.109375 3.085938 -0.0664062 2.515625 -0.421875 C 1.953125 -0.773438 1.507812 -1.28125 1.1875 -1.9375 C 0.863281 -2.59375 0.703125 -3.367188 0.703125 -4.265625 C 0.703125 -5.171875 0.863281 -5.953125 1.1875 -6.609375 C 1.507812 -7.265625 1.953125 -7.769531 2.515625 -8.125 C 3.085938 -8.476562 3.738281 -8.65625 4.46875 -8.65625 C 5.039062 -8.65625 5.566406 -8.546875 6.046875 -8.328125 C 6.535156 -8.109375 6.941406 -7.789062 7.265625 -7.375 C 7.585938 -6.957031 7.800781 -6.457031 7.90625 -5.875 Z M 7.90625 -5.875 "/></g></g></g><g fill="#ffffff" fill-opacity="1"><g transform="translate(98.00298, 12.886072)"><g><path d="M 6.640625 -8.546875 L 7.671875 -8.546875 L 7.671875 -2.890625 C 7.671875 -2.242188 7.519531 -1.691406 7.21875 -1.234375 C 6.914062 -0.785156 6.507812 -0.441406 6 -0.203125 C 5.5 0.0351562 4.953125 0.15625 4.359375 0.15625 C 3.753906 0.15625 3.195312 0.0351562 2.6875 -0.203125 C 2.1875 -0.441406 1.785156 -0.785156 1.484375 -1.234375 C 1.179688 -1.691406 1.03125 -2.242188 1.03125 -2.890625 L 1.03125 -8.546875 L 2.0625 -8.546875 L 2.0625 -2.890625 C 2.0625 -2.441406 2.164062 -2.0625 2.375 -1.75 C 2.59375 -1.445312 2.875 -1.210938 3.21875 -1.046875 C 3.570312 -0.890625 3.953125 -0.8125 4.359375 -0.8125 C 4.765625 -0.8125 5.140625 -0.890625 5.484375 -1.046875 C 5.835938 -1.210938 6.117188 -1.445312 6.328125 -1.75 C 6.535156 -2.0625 6.640625 -2.441406 6.640625 -2.890625 Z M 6.640625 -8.546875 "/></g></g></g><g fill="#ffffff" fill-opacity="1"><g transform="translate(111.282216, 12.886072)"><g><path d="M 5.703125 -6.40625 C 5.660156 -6.832031 5.457031 -7.160156 5.09375 -7.390625 C 4.738281 -7.628906 4.300781 -7.75 3.78125 -7.75 C 3.21875 -7.75 2.765625 -7.613281 2.421875 -7.34375 C 2.078125 -7.070312 1.90625 -6.734375 1.90625 -6.328125 C 1.90625 -6.015625 2 -5.765625 2.1875 -5.578125 C 2.375 -5.390625 2.59375 -5.242188 2.84375 -5.140625 C 3.101562 -5.035156 3.34375 -4.957031 3.5625 -4.90625 L 4.421875 -4.671875 C 4.640625 -4.609375 4.882812 -4.523438 5.15625 -4.421875 C 5.4375 -4.328125 5.703125 -4.191406 5.953125 -4.015625 C 6.203125 -3.835938 6.410156 -3.609375 6.578125 -3.328125 C 6.742188 -3.054688 6.828125 -2.71875 6.828125 -2.3125 C 6.828125 -1.851562 6.707031 -1.4375 6.46875 -1.0625 C 6.226562 -0.695312 5.875 -0.398438 5.40625 -0.171875 C 4.945312 0.046875 4.390625 0.15625 3.734375 0.15625 C 2.816406 0.15625 2.085938 -0.0625 1.546875 -0.5 C 1.015625 -0.9375 0.722656 -1.503906 0.671875 -2.203125 L 1.734375 -2.203125 C 1.765625 -1.878906 1.875 -1.613281 2.0625 -1.40625 C 2.25 -1.195312 2.488281 -1.039062 2.78125 -0.9375 C 3.082031 -0.832031 3.398438 -0.78125 3.734375 -0.78125 C 4.128906 -0.78125 4.484375 -0.84375 4.796875 -0.96875 C 5.117188 -1.101562 5.367188 -1.285156 5.546875 -1.515625 C 5.734375 -1.753906 5.828125 -2.03125 5.828125 -2.34375 C 5.828125 -2.625 5.742188 -2.851562 5.578125 -3.03125 C 5.421875 -3.207031 5.210938 -3.347656 4.953125 -3.453125 C 4.703125 -3.566406 4.425781 -3.664062 4.125 -3.75 L 3.078125 -4.0625 C 2.398438 -4.25 1.867188 -4.519531 1.484375 -4.875 C 1.097656 -5.226562 0.90625 -5.695312 0.90625 -6.28125 C 0.90625 -6.757812 1.035156 -7.175781 1.296875 -7.53125 C 1.554688 -7.882812 1.90625 -8.160156 2.34375 -8.359375 C 2.78125 -8.554688 3.273438 -8.65625 3.828125 -8.65625 C 4.367188 -8.65625 4.851562 -8.554688 5.28125 -8.359375 C 5.71875 -8.171875 6.0625 -7.90625 6.3125 -7.5625 C 6.5625 -7.226562 6.691406 -6.84375 6.703125 -6.40625 Z M 5.703125 -6.40625 "/></g></g></g><g fill="#ffffff" fill-opacity="1"><g transform="translate(123.342338, 12.886072)"><g><path d="M 4.578125 -4.125 L 4.578125 -3.203125 L 0.828125 -3.203125 L 0.828125 -4.125 Z M 4.578125 -4.125 "/></g></g></g><g fill="#ffffff" fill-opacity="1"><g transform="translate(133.314944, 12.886072)"><g><path d="M 1.03125 0 L 1.03125 -8.546875 L 6.15625 -8.546875 L 6.15625 -7.625 L 2.0625 -7.625 L 2.0625 -4.734375 L 5.78125 -4.734375 L 5.78125 -3.828125 L 2.0625 -3.828125 L 2.0625 0 Z M 1.03125 0 "/></g></g></g><g fill="#ffffff" fill-opacity="1"><g transform="translate(144.773866, 12.886072)"><g><path d="M 1.03125 0 L 1.03125 -8.546875 L 2.0625 -8.546875 L 2.0625 -0.921875 L 6.046875 -0.921875 L 6.046875 0 Z M 1.03125 0 "/></g></g></g><g fill="#ffffff" fill-opacity="1"><g transform="translate(155.948886, 12.886072)"><g><path d="M 8.25 -4.265625 C 8.25 -3.367188 8.082031 -2.59375 7.75 -1.9375 C 7.425781 -1.28125 6.976562 -0.773438 6.40625 -0.421875 C 5.84375 -0.0664062 5.195312 0.109375 4.46875 0.109375 C 3.738281 0.109375 3.085938 -0.0664062 2.515625 -0.421875 C 1.953125 -0.773438 1.507812 -1.28125 1.1875 -1.9375 C 0.863281 -2.59375 0.703125 -3.367188 0.703125 -4.265625 C 0.703125 -5.171875 0.863281 -5.953125 1.1875 -6.609375 C 1.507812 -7.265625 1.953125 -7.769531 2.515625 -8.125 C 3.085938 -8.476562 3.738281 -8.65625 4.46875 -8.65625 C 5.195312 -8.65625 5.84375 -8.476562 6.40625 -8.125 C 6.976562 -7.769531 7.425781 -7.265625 7.75 -6.609375 C 8.082031 -5.953125 8.25 -5.171875 8.25 -4.265625 Z M 7.25 -4.265625 C 7.25 -5.003906 7.125 -5.628906 6.875 -6.140625 C 6.625 -6.648438 6.289062 -7.035156 5.875 -7.296875 C 5.457031 -7.554688 4.988281 -7.6875 4.46875 -7.6875 C 3.957031 -7.6875 3.488281 -7.554688 3.0625 -7.296875 C 2.644531 -7.035156 2.3125 -6.648438 2.0625 -6.140625 C 1.820312 -5.628906 1.703125 -5.003906 1.703125 -4.265625 C 1.703125 -3.523438 1.820312 -2.898438 2.0625 -2.390625 C 2.3125 -1.890625 2.644531 -1.503906 3.0625 -1.234375 C 3.488281 -0.972656 3.957031 -0.84375 4.46875 -0.84375 C 4.988281 -0.84375 5.457031 -0.972656 5.875 -1.234375 C 6.289062 -1.503906 6.625 -1.890625 6.875 -2.390625 C 7.125 -2.898438 7.25 -3.523438 7.25 -4.265625 Z M 7.25 -4.265625 "/></g></g></g><g fill="#ffffff" fill-opacity="1"><g transform="translate(169.461926, 12.886072)"><g><path d="M 2.59375 0 L 0.25 -8.546875 L 1.296875 -8.546875 L 3.09375 -1.578125 L 3.171875 -1.578125 L 4.984375 -8.546875 L 6.15625 -8.546875 L 7.984375 -1.578125 L 8.0625 -1.578125 L 9.84375 -8.546875 L 10.90625 -8.546875 L 8.5625 0 L 7.5 0 L 5.609375 -6.8125 L 5.546875 -6.8125 L 3.65625 0 Z M 2.59375 0 "/></g></g></g><g fill="#ffffff" fill-opacity="1"><g transform="translate(185.179376, 12.886072)"><g><path d="M 4.578125 -4.125 L 4.578125 -3.203125 L 0.828125 -3.203125 L 0.828125 -4.125 Z M 4.578125 -4.125 "/></g></g></g><g fill="#ffffff" fill-opacity="1"><g transform="translate(195.151982, 12.886072)"><g><path d="M 6.875 -5.875 C 6.695312 -6.4375 6.398438 -6.878906 5.984375 -7.203125 C 5.566406 -7.523438 5.050781 -7.6875 4.4375 -7.6875 C 3.9375 -7.6875 3.476562 -7.554688 3.0625 -7.296875 C 2.644531 -7.035156 2.3125 -6.648438 2.0625 -6.140625 C 1.820312 -5.628906 1.703125 -5.003906 1.703125 -4.265625 C 1.703125 -3.523438 1.820312 -2.898438 2.0625 -2.390625 C 2.3125 -1.890625 2.648438 -1.503906 3.078125 -1.234375 C 3.503906 -0.972656 3.976562 -0.84375 4.5 -0.84375 C 4.988281 -0.84375 5.414062 -0.945312 5.78125 -1.15625 C 6.15625 -1.363281 6.445312 -1.65625 6.65625 -2.03125 C 6.863281 -2.40625 6.976562 -2.847656 7 -3.359375 L 4.734375 -3.359375 L 4.734375 -4.265625 L 8 -4.265625 L 8 -3.359375 C 8 -2.648438 7.847656 -2.035156 7.546875 -1.515625 C 7.242188 -0.992188 6.832031 -0.59375 6.3125 -0.3125 C 5.789062 -0.03125 5.1875 0.109375 4.5 0.109375 C 3.75 0.109375 3.085938 -0.0664062 2.515625 -0.421875 C 1.941406 -0.773438 1.492188 -1.28125 1.171875 -1.9375 C 0.859375 -2.59375 0.703125 -3.367188 0.703125 -4.265625 C 0.703125 -5.171875 0.859375 -5.953125 1.171875 -6.609375 C 1.492188 -7.265625 1.9375 -7.769531 2.5 -8.125 C 3.0625 -8.476562 3.707031 -8.65625 4.4375 -8.65625 C 5.039062 -8.65625 5.585938 -8.535156 6.078125 -8.296875 C 6.566406 -8.066406 6.972656 -7.742188 7.296875 -7.328125 C 7.617188 -6.910156 7.832031 -6.425781 7.9375 -5.875 Z M 6.875 -5.875 "/></g></g></g><g fill="#ffffff" fill-opacity="1"><g transform="translate(208.447918, 12.886072)"><g><path d="M 1.03125 0 L 1.03125 -8.546875 L 2.0625 -8.546875 L 2.0625 -0.921875 L 6.046875 -0.921875 L 6.046875 0 Z M 1.03125 0 "/></g></g></g><g fill="#ffffff" fill-opacity="1"><g transform="translate(219.622939, 12.886072)"><g><path d="M 8.25 -4.265625 C 8.25 -3.367188 8.082031 -2.59375 7.75 -1.9375 C 7.425781 -1.28125 6.976562 -0.773438 6.40625 -0.421875 C 5.84375 -0.0664062 5.195312 0.109375 4.46875 0.109375 C 3.738281 0.109375 3.085938 -0.0664062 2.515625 -0.421875 C 1.953125 -0.773438 1.507812 -1.28125 1.1875 -1.9375 C 0.863281 -2.59375 0.703125 -3.367188 0.703125 -4.265625 C 0.703125 -5.171875 0.863281 -5.953125 1.1875 -6.609375 C 1.507812 -7.265625 1.953125 -7.769531 2.515625 -8.125 C 3.085938 -8.476562 3.738281 -8.65625 4.46875 -8.65625 C 5.195312 -8.65625 5.84375 -8.476562 6.40625 -8.125 C 6.976562 -7.769531 7.425781 -7.265625 7.75 -6.609375 C 8.082031 -5.953125 8.25 -5.171875 8.25 -4.265625 Z M 7.25 -4.265625 C 7.25 -5.003906 7.125 -5.628906 6.875 -6.140625 C 6.625 -6.648438 6.289062 -7.035156 5.875 -7.296875 C 5.457031 -7.554688 4.988281 -7.6875 4.46875 -7.6875 C 3.957031 -7.6875 3.488281 -7.554688 3.0625 -7.296875 C 2.644531 -7.035156 2.3125 -6.648438 2.0625 -6.140625 C 1.820312 -5.628906 1.703125 -5.003906 1.703125 -4.265625 C 1.703125 -3.523438 1.820312 -2.898438 2.0625 -2.390625 C 2.3125 -1.890625 2.644531 -1.503906 3.0625 -1.234375 C 3.488281 -0.972656 3.957031 -0.84375 4.46875 -0.84375 C 4.988281 -0.84375 5.457031 -0.972656 5.875 -1.234375 C 6.289062 -1.503906 6.625 -1.890625 6.875 -2.390625 C 7.125 -2.898438 7.25 -3.523438 7.25 -4.265625 Z M 7.25 -4.265625 "/></g></g></g><g fill="#ffffff" fill-opacity="1"><g transform="translate(233.135978, 12.886072)"><g><path d="M 2.59375 0 L 0.25 -8.546875 L 1.296875 -8.546875 L 3.09375 -1.578125 L 3.171875 -1.578125 L 4.984375 -8.546875 L 6.15625 -8.546875 L 7.984375 -1.578125 L 8.0625 -1.578125 L 9.84375 -8.546875 L 10.90625 -8.546875 L 8.5625 0 L 7.5 0 L 5.609375 -6.8125 L 5.546875 -6.8125 L 3.65625 0 Z M 2.59375 0 "/></g></g></g></g></g></g></g></g></svg>